<?xml version="1.0" encoding="iso-8859-1"?>
<!-- Generator: Adobe Illustrator 19.0.0, SVG Export Plug-In . SVG Version: 6.00 Build 0)  -->
<svg version="1.1" id="Capa_1" xmlns="http://www.w3.org/2000/svg" xmlns:xlink="http://www.w3.org/1999/xlink" x="0px" y="0px"
	 viewBox="0 0 512 512" style="enable-background:new 0 0 512 512;" xml:space="preserve">
<g>
	<g>
		<circle cx="436" cy="136" r="15"/>
	</g>
</g>
<g>
	<g>
		<circle cx="436" cy="76" r="15"/>
	</g>
</g>
<g>
	<g>
		<circle cx="436" cy="15" r="15"/>
	</g>
</g>
<g>
	<g>
		<circle cx="76" cy="136" r="15"/>
	</g>
</g>
<g>
	<g>
		<circle cx="76" cy="76" r="15"/>
	</g>
</g>
<g>
	<g>
		<circle cx="76" cy="15" r="15"/>
	</g>
</g>
<g>
	<g>
		<path d="M256,61c-21.63,0-42.264,29.681-59.418,71.785C210.595,143.85,232.385,151,256,151c25.457,0,46.254-7.714,59.432-18.181
			C298.275,90.7,277.636,61,256,61z"/>
	</g>
</g>
<g>
	<g>
		<path d="M76,181c-26.596,0-37.502,43.352-41.957,81.623C46.427,267.829,60.859,271,76,271c15.233,0,29.599-3.171,41.94-8.366
			C113.489,224.358,102.603,181,76,181z"/>
	</g>
</g>
<g>
	<g>
		<path d="M436,181c-26.64,0-37.52,43.477-41.959,81.791c25.12,10.179,58.894,9.818,83.904-0.251
			C473.484,224.292,462.578,181,436,181z"/>
	</g>
</g>
<g>
	<g>
		<path d="M256,241c-8.276,0-15,6.724-15,15v60c0,8.276,6.724,15,15,15s15-6.724,15-15v-60C271,247.724,264.276,241,256,241z"/>
	</g>
</g>
<g>
	<g>
		<path d="M480.447,293.835C466.635,298.385,451.536,301,436,301c-15.562,0-30.617-2.679-44.447-7.238
			c-0.119,2.543-0.216,4.978-0.289,7.238h-34.673c-5.283-45.077-16.121-95.887-30.439-139.14C307.486,173.784,282.931,181,256,181
			c-26.933,0-51.447-7.178-70.151-19.138c-14.73,44.504-25.494,96.913-30.439,139.138h-34.673c-0.071-2.19-0.167-4.561-0.28-7.02
			C106.769,298.482,91.709,301,76,301c-15.617,0-30.749-2.41-44.46-6.916C31.093,303.78,31,311.616,31,316
			c0,22.544,2.168,135,45,135c18.516,0,31.23-19.658,38.73-60h45.059l25.605,25.605C188.207,419.418,192.016,421,196,421h120
			c3.984,0,7.793-1.582,10.605-4.395L352.211,391h45.059c7.5,40.342,20.215,60,38.73,60c42.832,0,45-112.456,45-135
			C481,311.58,480.905,303.64,480.447,293.835z M301,316c0,24.814-20.186,45-45,45c-24.814,0-45-20.186-45-45v-60
			c0-24.814,20.186-45,45-45c24.814,0,45,20.186,45,45V316z"/>
	</g>
</g>
<g>
	<g>
		<path d="M214.669,451c5.072,20.841,15.449,41.329,30.725,56.605c2.93,2.93,6.768,4.395,10.606,4.395s7.676-1.465,10.605-4.395
			c15.276-15.276,25.655-35.764,30.727-56.605H214.669z"/>
	</g>
</g>
<g>
</g>
<g>
</g>
<g>
</g>
<g>
</g>
<g>
</g>
<g>
</g>
<g>
</g>
<g>
</g>
<g>
</g>
<g>
</g>
<g>
</g>
<g>
</g>
<g>
</g>
<g>
</g>
<g>
</g>
</svg>
