<?xml version="1.0" encoding="iso-8859-1"?>
<!-- Generator: Adobe Illustrator 19.0.0, SVG Export Plug-In . SVG Version: 6.00 Build 0)  -->
<svg version="1.1" id="Capa_1" xmlns="http://www.w3.org/2000/svg" xmlns:xlink="http://www.w3.org/1999/xlink" x="0px" y="0px"
	 viewBox="0 0 384 384" style="enable-background:new 0 0 384 384;" xml:space="preserve">
<g>
	<g>
		<path d="M368,228.8h-19.168v-54.4c0-8.832-7.168-16-16-16H279.72c-8.832,0-16,7.168-16,16v54.4h-20.384V60
			c0-3.632-1.232-7.152-3.504-9.992l-35.168-44c-6.08-7.6-18.92-7.6-25,0l-35.168,44c-2.264,2.832-3.504,6.36-3.504,9.992v168.8
			h-20.744v-54.4c0-8.832-7.168-16-16-16H51.136c-8.832,0-16,7.168-16,16v54.4H16c-8.832,0-16,7.168-16,16v70.4
			c0,8.832,7.168,16,16,16h71.912V368c0,8.832,7.168,16,16,16h176.176c8.832,0,16-7.168,16-16v-36.8H368c8.832,0,16-7.168,16-16
			v-70.4C384,235.968,376.832,228.8,368,228.8z M352,299.2L352,299.2h-71.912c-8.832,0-16,7.168-16,16V352H119.912v-36.8
			c0-8.832-7.168-16-16-16H32v-38.4h19.168c8.832,0,16-7.168,16-16v-54.4H88.28v54.4c0,8.832,7.168,16,16,16h52.744
			c8.832,0,16-7.168,16-16V65.608l19.168-23.984l19.168,23.984V244.8c0,8.832,7.168,16,16,16h52.384c8.832,0,16-7.168,16-16v-54.4
			h21.112v54.4c0,8.832,7.168,16,16,16H352V299.2z"/>
	</g>
</g>
<g>
	<g>
		<path d="M227.296,299.2h-70.328c-8.832,0-16,7.168-16,16c0,8.832,7.168,16,16,16h70.328c8.832,0,16-7.168,16-16
			C243.296,306.368,236.128,299.2,227.296,299.2z"/>
	</g>
</g>
<g>
	<g>
		<path d="M77.848,79.752c-8.832,0-16,7.168-16,16V121.6c0,8.832,7.168,16,16,16c8.832,0,16-7.168,16-16V95.752
			C93.848,86.912,86.68,79.752,77.848,79.752z"/>
	</g>
</g>
<g>
	<g>
		<path d="M306.416,79.752c-8.832,0-16,7.168-16,16V121.6c0,8.832,7.168,16,16,16c8.832,0,16-7.168,16-16V95.752
			C322.416,86.912,315.248,79.752,306.416,79.752z"/>
	</g>
</g>
<g>
	<g>
		<path d="M77.848,0c-8.832,0-16,7.168-16,16v25.848c0,8.832,7.168,16,16,16c8.832,0,16-7.168,16-16V16
			C93.848,7.168,86.68,0,77.848,0z"/>
	</g>
</g>
<g>
	<g>
		<path d="M306.416,0c-8.832,0-16,7.168-16,16v25.848c0,8.832,7.168,16,16,16c8.832,0,16-7.168,16-16V16
			C322.416,7.168,315.248,0,306.416,0z"/>
	</g>
</g>
<g>
</g>
<g>
</g>
<g>
</g>
<g>
</g>
<g>
</g>
<g>
</g>
<g>
</g>
<g>
</g>
<g>
</g>
<g>
</g>
<g>
</g>
<g>
</g>
<g>
</g>
<g>
</g>
<g>
</g>
</svg>
