<svg xmlns="http://www.w3.org/2000/svg" xmlns:xlink="http://www.w3.org/1999/xlink" version="1.1" x="0px" y="0px" viewBox="0 0 160 200" style="enable-background:new 0 0 160 160;" xml:space="preserve"><g><path d="M153.482,50.472c-0.211-1.561-1.439-2.788-3.001-2.998l-12.319-1.658c-1.081-0.141-2.165,0.221-2.937,0.989l-2.724,2.713   l-14.783-15.278c0.59-2.859,0.15-5.937-1.49-8.614c-1.658-2.705-4.268-4.599-7.349-5.333c-1.597-0.38-3.22-0.417-4.79-0.139   c-1.451,0.257-2.856,0.782-4.149,1.581c-0.267,0.165-0.518,0.347-0.767,0.529c-1.011,0.739-1.878,1.612-2.584,2.585   c-1.069,1.473-1.769,3.166-2.081,4.934c-0.088,0.496-0.133,0.998-0.158,1.501L71.105,45.031c-1.277-0.734-2.668-1.285-4.144-1.616   c-1.052-0.236-2.141-0.371-3.263-0.371c-8.247,0-14.957,6.729-14.957,15.002s6.71,15.003,14.957,15.003   c6.981,0,12.843-4.829,14.484-11.327c0.298-1.179,0.473-2.406,0.473-3.676c0-0.259-0.026-0.511-0.039-0.766l22.686-14.608   c0.672,0.3,1.374,0.544,2.105,0.719c0.916,0.218,1.841,0.326,2.759,0.326c0.857,0,1.703-0.121,2.536-0.307l15.242,14.631   l-2.704,2.693c-0.776,0.772-1.146,1.864-0.998,2.95l1.665,12.271c0.211,1.561,1.439,2.788,3.001,2.998l9.786,1.317   c1.551,0.208,2.345-1.8,1.071-2.708l-7.281-5.191l-1.072-7.904l11.528-11.483l7.964,1.072l5.196,7.249   c0.911,1.271,2.916,0.474,2.706-1.076L153.482,50.472z M73.656,58.047c0,5.516-4.467,10.003-9.957,10.003   s-9.957-4.487-9.957-10.003c0-5.515,4.467-10.002,9.957-10.002S73.656,52.532,73.656,58.047z M75.169,48.436l20.118-11.898   c0.222,0.517,0.471,1.027,0.773,1.521c0.303,0.495,0.649,0.952,1.013,1.391L77.425,52.102   C76.849,50.769,76.087,49.536,75.169,48.436z M104.567,38.527c-1.777-0.424-3.284-1.518-4.243-3.082   c-1.979-3.229-0.973-7.471,2.243-9.456c1.09-0.673,2.317-1.019,3.565-1.019c0.528,0,1.062,0.062,1.589,0.188   c1.778,0.424,3.285,1.518,4.243,3.082c1.979,3.229,0.974,7.472-2.242,9.457C108.17,38.656,106.342,38.952,104.567,38.527z    M113.526,41.11c0.741-0.593,1.391-1.264,1.953-1.992l14.174,14.648l-1.444,1.438L113.526,41.11z"/><path d="M85.427,74.721H41.969V62.837c0-11.954,9.726-21.68,21.779-21.68c1.982,0,3.9,0.272,5.725,0.773l7.569-4.477   c-3.288-1.728-6.955-2.83-10.844-3.171V25.42c0-1.381-1.119-2.5-2.5-2.5s-2.5,1.119-2.5,2.5v8.849   c-14.671,1.248-26.229,13.58-26.229,28.568v11.885H18.673c-1.58,0-2.964,1.059-3.378,2.583L11.528,91.18   c-0.286,1.052-0.064,2.177,0.598,3.043s1.69,1.374,2.78,1.374h17.731l-4.003,5.786c1.673,0.452,3.263,1.103,4.747,1.926   l5.336-7.712h3.092l-6.276,9.071c1.369,0.988,2.62,2.132,3.721,3.41l6.079-8.787l4.49,6.49c1.264-1.084,2.656-2.022,4.149-2.79   l-5.115-7.394h3.094l4.4,6.36c1.663-0.612,3.418-1.027,5.244-1.207l-3.565-5.153h11.336l-3.565,5.153   c1.827,0.18,3.582,0.594,5.245,1.207l4.4-6.36h3.092l-5.115,7.394c1.493,0.768,2.885,1.706,4.149,2.79l4.49-6.489l6.079,8.787   c1.101-1.278,2.351-2.421,3.721-3.41l-6.276-9.072h3.094l5.336,7.712c1.484-0.823,3.074-1.474,4.746-1.926l-4.003-5.786h17.731   c1.09,0,2.118-0.508,2.78-1.374s0.883-1.991,0.598-3.043l-3.767-13.876c-0.414-1.524-1.798-2.583-3.378-2.583H92.427V62.837   c0-3.25-0.551-6.372-1.552-9.286l-6.116,3.938c0.436,1.711,0.669,3.503,0.669,5.348V74.721z M21.349,81.721h17.12h50.458h17.12   l1.866,6.876H19.483L21.349,81.721z"/><path d="M63.698,53.675c-2.406,0-4.357,1.958-4.357,4.373c0,2.415,1.951,4.373,4.357,4.373c2.406,0,4.357-1.958,4.357-4.373   C68.055,55.632,66.104,53.675,63.698,53.675z"/><path d="M107.723,30.868c-0.537-0.875-1.679-1.149-2.551-0.61c-0.872,0.539-1.145,1.685-0.608,2.56   c0.536,0.875,1.678,1.149,2.551,0.61C107.988,32.889,108.26,31.743,107.723,30.868z"/><path d="M23.079,104.137c-9.87,0-17.9,8.05-17.9,17.945s8.03,17.945,17.9,17.945s17.9-8.05,17.9-17.945   S32.949,104.137,23.079,104.137z M23.079,129.027c-3.805,0-6.9-3.115-6.9-6.945s3.096-6.945,6.9-6.945s6.9,3.115,6.9,6.945   S26.884,129.027,23.079,129.027z"/><path d="M104.318,104.137c-9.87,0-17.9,8.05-17.9,17.945s8.03,17.945,17.9,17.945s17.899-8.05,17.899-17.945   S114.188,104.137,104.318,104.137z M104.318,129.027c-3.805,0-6.9-3.115-6.9-6.945s3.096-6.945,6.9-6.945s6.899,3.115,6.899,6.945   S108.122,129.027,104.318,129.027z"/><path d="M63.699,104.137c-9.87,0-17.9,8.05-17.9,17.945s8.03,17.945,17.9,17.945s17.9-8.05,17.9-17.945   S73.569,104.137,63.699,104.137z M63.699,129.027c-3.805,0-6.9-3.115-6.9-6.945s3.096-6.945,6.9-6.945s6.9,3.115,6.9,6.945   S67.503,129.027,63.699,129.027z"/></g><text x="0" y="175" fill="#000000" font-size="5px" font-weight="bold" font-family="'Helvetica Neue', Helvetica, Arial-Unicode, Arial, Sans-serif">Created by Symbolon</text><text x="0" y="180" fill="#000000" font-size="5px" font-weight="bold" font-family="'Helvetica Neue', Helvetica, Arial-Unicode, Arial, Sans-serif">from the Noun Project</text></svg>